<?xml version="1.0" encoding="UTF-8" standalone="no"?>
<svg
   version="1.1"
   viewBox="300 300 186 186"
   id="svg2"
   sodipodi:docname="aibex_logo copy.svg"
   width="186"
   height="186"
   inkscape:version="1.4.2 (f4327f4, 2025-05-13)"
   xmlns:inkscape="http://www.inkscape.org/namespaces/inkscape"
   xmlns:sodipodi="http://sodipodi.sourceforge.net/DTD/sodipodi-0.dtd"
   xmlns="http://www.w3.org/2000/svg"
   xmlns:svg="http://www.w3.org/2000/svg">
  <sodipodi:namedview
     id="namedview2"
     pagecolor="#ffffff"
     bordercolor="#000000"
     borderopacity="0.25"
     inkscape:showpageshadow="2"
     inkscape:pageopacity="0.0"
     inkscape:pagecheckerboard="0"
     inkscape:deskcolor="#d1d1d1"
     inkscape:zoom="2.4935484"
     inkscape:cx="154.79948"
     inkscape:cy="122.91721"
     inkscape:window-width="1920"
     inkscape:window-height="991"
     inkscape:window-x="-9"
     inkscape:window-y="-9"
     inkscape:window-maximized="1"
     inkscape:current-layer="svg2" />
  <defs
     id="defs1">
    <style
       id="style1">
      .cls-1, .cls-2, .cls-3 {
        isolation: isolate;
      }

      .cls-2 {
        font-family: Montserrat-Medium, Montserrat;
        font-size: 18px;
        font-weight: 500;
      }

      .cls-3 {
        font-family: Montserrat-SemiBold, Montserrat;
        font-size: 72px;
        font-weight: 600;
      }
    </style>
  </defs>
  <!-- Generator: Adobe Illustrator 28.6.0, SVG Export Plug-In . SVG Version: 1.2.0 Build 709)  -->
  <g
     id="g2"
     transform="translate(-31.5,-43.311773)">
    <g
       id="Layer_1">
      <g
         id="g1">
        <path
           d="m 398,458.5 c -0.9,-1.1 -1.7,-2 -2.4,-3.1 -4,-6.1 -6.6,-12.8 -7.3,-20 -0.7,-7.9 0.5,-15.5 4.7,-22.5 1.7,-2.9 3.4,-5.6 4,-8.9 0.3,-1.4 0.3,-2.9 0.5,-4.6 3.4,-1.5 6.8,-3.5 7.3,-8.4 -0.2,0.3 -0.4,0.4 -0.4,0.6 -1.3,3.1 -3.6,4.9 -6.7,6 -1.8,0.6 -3.7,1.2 -5.6,1.8 -0.6,0.2 -1.3,0.4 -1.9,0.7 0.2,1 0.4,1.9 0.5,2.9 0.5,3.7 -2.1,6.9 -6,7 0.4,-0.9 1,-1.6 1.2,-2.3 0.2,-0.9 0.4,-1.8 0.3,-2.8 -0.1,-1.4 -0.7,-2 -2.1,-2.2 -1.1,-0.2 -2,-0.5 -2.8,-1.5 1.8,0.2 2.1,0 4.6,-1.6 -0.5,0 -0.9,0.1 -1.2,0.2 -0.3,0 -0.7,0.2 -1.1,0.3 -3.4,1.1 -5.1,0 -5.1,-3.7 0,-3.7 0.4,-2.8 1.4,-3.8 2.8,-3 5.5,-6 8.3,-8.9 1.1,-1.2 2,-2.4 2.6,-3.9 0.6,-1.8 1.8,-3.2 3.4,-4.3 0.3,-0.2 0.5,-0.5 0.6,-0.9 0.3,-2.4 1.2,-4.7 2.3,-6.9 1.9,-3.8 4.3,-7.6 7,-10.9 5.7,-6.6 12.9,-11 21.6,-12.2 9.6,-1.4 18.6,0.4 26.5,6.3 5.4,3.9 8.9,9.3 10.3,15.9 1.7,8.4 -1.6,16.8 -8.3,21.3 -1.4,0.9 -2.8,1.6 -4.8,1.8 2.2,-1.5 3.9,-3.3 5.1,-5.4 4.3,-7.8 2.7,-17.4 -4.7,-23.4 -5.3,-4.5 -11.5,-5.7 -18.3,-5 -3,0.3 -5.9,0.9 -8.6,2 -4.9,2 -8.5,5.7 -11.5,9.9 -1.9,2.8 -3.3,5.7 -4.2,9.1 1.9,-2.1 3.9,-4 6.6,-5.3 2.7,-1.3 5.3,-1.6 8.2,-1.3 -0.3,4.5 -3.7,10.9 -12.5,10.4 1.2,0.9 2.6,1.5 3.7,2.6 3.4,3.1 5.3,7.1 6.6,11.5 1.1,3.5 1.5,7.2 1.6,10.9 0,2.7 0.2,5.3 0.3,8 0,2.7 1.4,4.7 3.4,6.3 4,3.2 7.8,6.7 11.4,10.4 3,3.1 6.7,4.8 10.5,6.4 3.6,1.5 7.2,3 10.9,4.6 3.8,1.8 7.2,4.4 9.9,7.6 1.6,1.9 2.9,4 4.3,6.1 0.6,1 1.4,1.9 2.1,2.8 1.6,2 3.7,3.2 6.5,3.2 -1.6,2.9 -5.7,2.9 -9.1,0 0.7,4 -1.1,7.5 -1.6,11.1 -1.1,6.5 1.1,11.6 6.1,15.7 1.2,1 1.6,2 1.4,3.4 -0.9,6 -0.4,11.9 1,17.9 0.3,1.3 0.6,2.4 0.9,3.7 0,0.6 0,1.5 -0.2,2.1 -0.4,1.1 -1,1.1 -2.2,0.4 -1.2,3 -2.2,6 -3.4,8.9 2.7,1.3 5.2,2.6 7.9,3.8 v 0.2 c -2.4,-0.6 -4.9,-1.3 -7.5,-1.9 -9.3,-2.4 -18.6,-4.6 -28.2,-6 -6,-1 -12,-1.6 -18.1,-2.3 -4.4,-0.5 -8.7,-1.1 -13.1,-1.5 -2.8,-0.3 -5.5,-0.5 -8.3,-0.5 -6.9,-0.1 -13.8,-0.3 -20.9,-0.2 -3.9,0 -7.8,0.5 -11.9,0.7 6.7,-2.4 13.4,-3.8 20.2,-4.5 0.6,-1.4 1.3,-2.9 2,-4.2 0.7,-1.2 1.6,-2.4 2.7,-3.4 1.1,-1 1.8,-2 2.2,-3.4 1.9,-5.2 2.7,-10.5 2.4,-16 0,-1.7 -0.2,-3.3 -0.3,-5 0,-1.4 0,-2.7 0.6,-4 1.4,-3.3 1.5,-6.8 1,-10.3 0,-0.5 -0.3,-1.2 -0.5,-1.7 -2.1,-5.1 -3.4,-10.4 -3.1,-16 0.2,-2.7 0.7,-5.3 1.2,-8 v -0.9 c -3.4,7.6 -3.5,15.1 0.2,22.8 -1,-0.5 -1.7,-1 -2.3,-1.5 -0.9,-0.6 -1.6,-1 -2.7,-1 -3.8,0 -7.7,-0.2 -11.4,-0.4 h -1.1 c 0.4,3.7 1.2,7.2 3,10.4 0.4,0.9 1.1,1.6 1.7,2.2 1.1,1.1 1.2,1.1 -0.1,2.4 1.4,0.4 2.6,1 3.8,1.2 1.1,0.2 1.7,0.7 2.1,1.7 1.2,2.7 1.1,6.6 -0.2,9.3 -1.6,-1.3 -3.2,-2.4 -4.8,-3.7 -1.5,-1.2 -3,-2.4 -4.5,-3.6 -1,-0.7 -1.6,-1.6 -1.9,-2.8 -1.5,-6.1 -3.8,-11.9 -6.8,-17.5 -0.6,-1.2 -1,-2.6 -0.6,-3.9 0.3,-2 1.6,-3.2 3.4,-3.7 3.3,-1 6.6,-1.9 9.9,-2.9 0.2,0.3 0.4,0.6 0.5,1.1 1.6,3.5 4.2,6.4 7,8.8 0.2,0.2 0.5,0.2 0.7,0.3 h -0.1 z m 57.7,-99.6 c 0,0.1 -0.1,0.2 -0.2,0.4 0,0.1 -0.1,0.2 -0.2,0.3 h -0.6 v 0.4 h -0.2 c 0,-0.1 0.1,-0.2 0.2,-0.4 h 0.6 c 0,-0.2 0,-0.3 0.1,-0.4 0,0 0.1,-0.2 0.2,-0.3 z m -47.2,0.9 v 0 l 0.2,0.2 c 0,0 0.1,0.2 0.2,0.3 0.4,0.6 0.9,1.2 1.3,1.8 l 0.3,-0.3 c -0.5,-0.5 -1.1,-1 -1.6,-1.5 0,0 -0.1,-0.2 -0.2,-0.3 0,0 -0.1,-0.2 -0.2,-0.2 z m 8.7,-3.4 v 0 c -0.2,-0.2 -0.3,-0.5 -0.5,-0.7 -0.4,-0.7 -0.9,-1.6 -1.3,-2.3 0,0 -0.2,0.1 -0.3,0.2 0.5,0.7 1,1.5 1.5,2.2 0.2,0.2 0.3,0.4 0.5,0.7 h 0.1 z m -12.9,12.5 c 0,0 0.1,0 0,0 v 0 c -0.6,-0.3 -1.3,-0.7 -2,-1.1 v 0.3 c 0.5,0.2 1.3,0.4 2,0.6 v 0 z m 41.5,-14.7 c 0.3,-1.1 0.6,-2.1 1,-3.2 h 0.2 c -0.4,1 -1.1,2 -1,3.2 h -0.3 c 0,0.1 0.1,0 0.2,-0.1 h -0.1 z M 445,457.9 c -1.4,3.1 -1.6,6.3 -1,9.6 0.7,3.9 2.7,7.2 5.2,10.3 0.5,0.6 0.7,1.2 0.5,2 -0.5,2.3 0,4.7 0.7,6.9 0.4,1.1 0.9,2 1.2,3.1 0.4,1.1 0.3,2 -0.4,2.9 -0.6,0.7 -1.2,1.5 -1.8,2.1 -3.5,4.3 -6.5,8.9 -8,14.4 0,0.3 -0.2,0.5 -0.3,0.9 -0.4,0.6 -1,0.9 -1.6,0.5 -0.3,-0.2 -0.5,-0.5 -0.9,-0.9 -0.7,1.4 -1.4,2.8 -2,4 9.5,1.9 18.8,4.2 27.9,7 1.8,-2 3.4,-3.9 5.3,-5.7 1.6,-1.5 2.3,-3.3 2.2,-5.5 -0.1,-2.9 -0.2,-5.9 -0.5,-8.7 -0.5,-4.7 -2.6,-8.6 -6.5,-11.5 -2.7,-1.9 -5.3,-3.8 -8,-5.7 -5.2,-3.7 -9.1,-8.5 -11.3,-14.6 -0.6,-1.7 -1.1,-3.5 -1.2,-5.3 -0.1,-1.9 0.1,-3.9 0.2,-5.9 v -0.2 0.2 h 0.1 z M 422.3,453 c -0.2,2.9 -1.1,5.5 -2.3,8.1 -1.2,2.4 -2.4,4.9 -3.7,7.2 -1.5,2.8 -3.3,5.4 -3.8,8.5 -0.5,3.2 -1.5,6.1 -2.8,8.9 -1.5,3.6 -1.6,7.5 -1.8,11.4 v 6.9 c 0,0.6 0,1.3 -0.7,1.6 -0.7,0.3 -1.1,-0.2 -1.5,-0.6 h -0.2 c -0.4,2 -1,4 -1.5,6.2 h 1.3 c 6.9,0 13.8,0.1 20.8,1.1 0.7,0 1.3,0 1.8,-0.6 1.4,-1.5 2.7,-3.1 4.4,-4.2 1.8,-1.2 3.2,-2.6 4.4,-4.2 2.4,-3.3 4.4,-6.8 5.7,-10.6 0.6,-1.8 0.4,-3.4 -0.7,-4.8 -1.2,-1.5 -2.4,-3 -3.7,-4.4 -1.8,-1.9 -3.4,-3.9 -4.4,-6.5 -0.5,-1.4 -1,-2.8 -0.9,-4.3 3.1,0.9 6.2,1.2 9.5,1 -8.3,-2 -16.5,-3.9 -24.7,-5.9 3.8,-4.3 5.4,-9.2 4.9,-14.8 h 0.1 z M 399,382.6 c -2.9,-1 -4.6,-0.3 -5,1.6 1.9,0.4 3.6,0 5,-1.6 z m 36.5,-30.4 c 0.4,-1.5 0.7,-3.1 0.5,-4.6 h -0.3 c 0,1.5 -0.2,3.1 -0.3,4.6 z m -9.3,-0.6 h 0.3 l -0.4,-3.8 h -0.2 c 0.1,1.3 0.2,2.6 0.3,3.7 v 0 z m -43.9,44.5 -0.3,-0.3 c -0.5,0.6 -1.1,1.2 -1.6,1.8 0,0 0.2,0.1 0.2,0.2 0.5,-0.5 1.1,-1.2 1.6,-1.7 z"
           id="path1" />
      </g>
    </g>
  </g>
</svg>
