<?xml version="1.0" encoding="UTF-8" standalone="no"?>
<!-- Created with Inkscape (http://www.inkscape.org/) -->

<svg
   width="67.755508mm"
   height="11.999806mm"
   viewBox="0 0 67.755507 11.999806"
   version="1.1"
   id="svg1"
   sodipodi:docname="logo-unifr.svg"
   inkscape:version="1.4.2 (ebf0e940, 2025-05-08)"
   xmlns:inkscape="http://www.inkscape.org/namespaces/inkscape"
   xmlns:sodipodi="http://sodipodi.sourceforge.net/DTD/sodipodi-0.dtd"
   xmlns="http://www.w3.org/2000/svg"
   xmlns:svg="http://www.w3.org/2000/svg">
  <sodipodi:namedview
     id="namedview1"
     pagecolor="#ffffff"
     bordercolor="#000000"
     borderopacity="0.25"
     inkscape:showpageshadow="2"
     inkscape:pageopacity="0.0"
     inkscape:pagecheckerboard="0"
     inkscape:deskcolor="#d1d1d1"
     inkscape:document-units="mm"
     inkscape:zoom="2.545311"
     inkscape:cx="166.18794"
     inkscape:cy="31.233904"
     inkscape:window-width="1512"
     inkscape:window-height="916"
     inkscape:window-x="0"
     inkscape:window-y="38"
     inkscape:window-maximized="0"
     inkscape:current-layer="group-R5" />
  <defs
     id="defs1" />
  <g
     inkscape:label="Layer 1"
     inkscape:groupmode="layer"
     id="layer1"
     transform="translate(-51.820266,-81.980012)">
    <g
       id="group-R5"
       transform="matrix(0.26458333,0,0,0.26458333,51.820266,81.980893)">
      <g
         id="g1"
         transform="translate(27.464707,0.39287923)">
        <path
           id="path2"
           d="m 48.931436,16.926418 v 6.47924 c 0,2.588923 -1.84858,3.430431 -3.908681,3.430431 -2.07849,0 -3.927061,-0.841508 -3.927061,-3.430431 v -6.47924 h 1.995721 v 5.936621 c 0,1.499094 0.510435,2.30842 1.93134,2.30842 1.397925,0 1.91295,-0.809326 1.91295,-2.30842 v -5.936621 h 1.995731"
           style="fill:#231f20;fill-opacity:1;fill-rule:nonzero;stroke:none;stroke-width:0.23544" />
        <path
           id="path3"
           d="m 57.236206,21.906564 c 0.54262,0.790938 0.905904,1.482543 0.905904,1.482543 h 0.06436 c 0,0 -0.06436,-0.889351 -0.06436,-2.12633 v -4.336359 h 1.995707 v 9.71195 H 58.270872 L 54.693267,21.70884 c -0.60699,-0.841626 -0.98866,-1.584675 -0.98866,-1.584675 h -0.06436 c 0,0 0.09656,0.873741 0.09656,2.225686 v 4.288517 h -1.995715 v -9.71195 h 1.931339 l 3.563784,4.980146"
           style="fill:#231f20;fill-opacity:1;fill-rule:nonzero;stroke:none;stroke-width:0.23544" />
        <path
           id="path4"
           d="m 65.223723,16.926418 v 9.71195 h -1.995756 v -9.71195 h 1.995756"
           style="fill:#231f20;fill-opacity:1;fill-rule:nonzero;stroke:none;stroke-width:0.23544" />
        <path
           id="path5"
           d="m 71.059103,22.467571 c 0.44616,1.40068 0.57942,2.538349 0.57942,2.538349 h 0.06427 c 0,0 0.133495,-1.154221 0.542688,-2.521798 l 1.715181,-5.557704 h 2.097065 l -3.218936,9.71195 H 70.38315 l -3.200572,-9.71195 h 2.147449 l 1.729072,5.541153"
           style="fill:#231f20;fill-opacity:1;fill-rule:nonzero;stroke:none;stroke-width:0.23544" />
        <path
           id="path6"
           d="m 84.344045,26.638368 h -6.332161 v -9.71195 h 6.332161 v 1.731897 h -4.336337 v 2.241153 h 3.825903 v 1.683068 h -3.825903 v 2.324971 h 4.336337 v 1.730861"
           style="fill:#231f20;fill-opacity:1;fill-rule:nonzero;stroke:none;stroke-width:0.23544" />
        <path
           id="path7"
           d="m 88.956315,21.377743 h 1.549666 c 1.006976,0 1.535776,-0.395469 1.535776,-1.384246 0,-0.873485 -0.510435,-1.385801 -1.51741,-1.385801 h -1.568032 z m 3.41647,5.260625 c -0.266519,-0.248321 -0.381649,-0.576664 -0.478178,-0.97305 l -0.38165,-1.533115 c -0.211424,-0.924292 -0.657582,-1.087075 -1.485391,-1.087075 h -1.071251 v 3.59324 h -1.995826 v -9.71195 h 3.678751 c 2.193595,0 3.44896,0.841464 3.44896,2.901562 0,1.517578 -0.924336,2.324147 -2.161338,2.423456 v 0.05059 c 0.905973,0.131517 1.384152,0.510433 1.632304,1.450333 l 0.492072,1.846745 c 0.115136,0.395468 0.24839,0.726545 0.547397,1.039256 h -2.22585"
           style="fill:#231f20;fill-opacity:1;fill-rule:nonzero;stroke:none;stroke-width:0.23544" />
        <path
           id="path8"
           d="m 97.771425,23.686161 c 0.202244,1.023599 0.924343,1.615896 1.899291,1.615896 0.841474,0 1.434534,-0.363285 1.434534,-1.102707 0,-0.69436 -0.38164,-1.039256 -1.747433,-1.501848 -1.995585,-0.643788 -3.053183,-1.418175 -3.053183,-3.117675 0,-2.142974 1.682926,-2.866718 3.31547,-2.866718 1.931316,0 3.366086,0.675007 3.545256,2.537338 l -1.97723,0.46264 c -0.0829,-0.924338 -0.75882,-1.367673 -1.536006,-1.367673 -0.707973,0 -1.269021,0.360696 -1.269021,1.070548 0,0.775304 0.611437,1.071487 1.830067,1.467966 1.84868,0.608779 2.95219,1.268199 2.95219,3.117676 0,2.043547 -1.65067,2.834485 -3.641792,2.834485 -1.912948,0 -3.14995,-0.675972 -3.582218,-2.423384 l 1.830075,-0.726544"
           style="fill:#231f20;fill-opacity:1;fill-rule:nonzero;stroke:none;stroke-width:0.23544" />
        <path
           id="path9"
           d="m 107.63048,16.926418 v 9.71195 h -1.9956 v -9.71195 h 1.9956"
           style="fill:#231f20;fill-opacity:1;fill-rule:nonzero;stroke:none;stroke-width:0.23544" />
        <path
           id="path10"
           d="m 112.29337,26.638368 v -7.980053 h -2.70403 v -1.731897 h 7.43568 v 1.731897 h -2.73606 v 7.980053 h -1.99559"
           style="fill:#231f20;fill-opacity:1;fill-rule:nonzero;stroke:none;stroke-width:0.23544" />
        <path
           id="path11"
           d="m 121.12684,15.934981 1.05785,-2.241154 h 2.50602 l -1.76581,2.241154 z m 4.17082,10.703387 h -6.33193 v -9.71195 h 6.33193 v 1.731897 h -4.33632 v 2.241153 h 3.82589 v 1.683068 h -3.82589 v 2.324971 h 4.33632 v 1.730861"
           style="fill:#231f20;fill-opacity:1;fill-rule:nonzero;stroke:none;stroke-width:0.23544" />
        <path
           id="path12"
           d="m 135.49693,24.955325 c 1.79806,0 2.93758,-0.823122 2.93758,-3.166481 0,-2.454581 -1.15319,-3.181148 -2.80409,-3.181148 h -1.21863 v 6.347629 z m -3.08074,1.683043 v -9.71195 h 3.39811 c 2.68449,0 4.71256,1.336358 4.71256,4.74746 0,3.596913 -2.11071,4.96449 -4.82745,4.96449 h -3.28322"
           style="fill:#231f20;fill-opacity:1;fill-rule:nonzero;stroke:none;stroke-width:0.23544" />
        <path
           id="path13"
           d="m 149.34199,26.638368 h -6.33193 v -9.71195 h 6.33193 v 1.731897 h -4.33635 v 2.241153 h 3.82591 v 1.683068 h -3.82591 v 2.324971 h 4.33635 v 1.730861"
           style="fill:#231f20;fill-opacity:1;fill-rule:nonzero;stroke:none;stroke-width:0.23544" />
        <path
           id="path14"
           d="m 156.49253,26.638368 v -9.71195 h 6.13439 v 1.731897 h -4.13856 v 2.538257 h 3.62814 v 1.682101 h -3.62814 v 3.759695 h -1.99583"
           style="fill:#231f20;fill-opacity:1;fill-rule:nonzero;stroke:none;stroke-width:0.23544" />
        <path
           id="path15"
           d="m 166.94491,21.377743 h 1.54966 c 1.00696,0 1.5313,-0.395469 1.5313,-1.384246 0,-0.873485 -0.51044,-1.385801 -1.51766,-1.385801 h -1.5633 z m 3.41198,5.260625 c -0.26205,-0.248321 -0.37718,-0.576664 -0.47818,-0.97305 l -0.37718,-1.533115 c -0.21613,-0.924292 -0.66205,-1.087075 -1.48515,-1.087075 h -1.07147 v 3.59324 h -1.99583 v -9.71195 h 3.67874 c 2.19359,0 3.44426,0.841464 3.44426,2.901562 0,1.517578 -0.92434,2.324147 -2.16135,2.423456 v 0.05059 c 0.91068,0.131517 1.38414,0.510433 1.63254,1.450333 l 0.49655,1.846745 c 0.11511,0.395468 0.24839,0.726545 0.54268,1.039256 h -2.22561"
           style="fill:#231f20;fill-opacity:1;fill-rule:nonzero;stroke:none;stroke-width:0.23544" />
        <path
           id="path16"
           d="m 176.83149,16.926418 v 9.71195 h -1.99583 v -9.71195 h 1.99583"
           style="fill:#231f20;fill-opacity:1;fill-rule:nonzero;stroke:none;stroke-width:0.23544" />
        <path
           id="path17"
           d="m 181.92666,24.955325 h 1.64618 c 0.92434,0 1.47152,-0.344874 1.47152,-1.253532 0,-0.739422 -0.46454,-1.169853 -1.4854,-1.169853 h -1.6323 z m 1.36554,-3.905904 c 0.84172,0 1.38886,-0.347722 1.38886,-1.221441 0,-0.873717 -0.54714,-1.220284 -1.45313,-1.220284 h -1.30127 v 2.441725 z m 1.63254,0.641009 c 1.33825,0.148981 2.14746,1.007072 2.14746,2.276234 0,1.616813 -1.07148,2.671704 -3.44873,2.671704 h -3.69265 v -9.71195 h 3.72467 c 1.96357,0 3.02118,0.873717 3.02118,2.45564 0,1.237002 -0.71269,2.012235 -1.75193,2.244002 v 0.06436"
           style="fill:#231f20;fill-opacity:1;fill-rule:nonzero;stroke:none;stroke-width:0.23544" />
        <path
           id="path18"
           d="m 191.0728,21.808149 c 0,2.060102 0.82309,3.29708 2.45563,3.29708 1.63252,0 2.44175,-1.236978 2.44175,-3.29708 0,-2.047269 -0.82309,-3.299809 -2.44175,-3.299809 -1.63254,0 -2.45563,1.25254 -2.45563,3.299809 z m -2.07847,-0.0193 c 0,-3.264965 1.73354,-5.060196 4.5341,-5.060196 2.80502,0 4.5341,1.795231 4.5341,5.060196 0,3.249262 -1.72908,5.047246 -4.5341,5.047246 -2.80056,0 -4.5341,-1.797984 -4.5341,-5.047246"
           style="fill:#231f20;fill-opacity:1;fill-rule:nonzero;stroke:none;stroke-width:0.23544" />
        <path
           id="path19"
           d="m 208.10074,16.926418 v 6.47924 c 0,2.588923 -1.84843,3.430431 -3.90853,3.430431 -2.07846,0 -3.92713,-0.841508 -3.92713,-3.430431 v -6.47924 h 1.99582 v 5.936621 c 0,1.499094 0.5149,2.30842 1.93131,2.30842 1.40251,0 1.91296,-0.809326 1.91296,-2.30842 v -5.936621 h 1.99557"
           style="fill:#231f20;fill-opacity:1;fill-rule:nonzero;stroke:none;stroke-width:0.23544" />
        <path
           id="path20"
           d="m 212.89242,21.377743 h 1.54966 c 1.00699,0 1.53603,-0.395469 1.53603,-1.384246 0,-0.873485 -0.51514,-1.385801 -1.51766,-1.385801 h -1.56803 z m 3.41201,5.260625 c -0.26205,-0.248321 -0.37695,-0.576664 -0.47818,-0.97305 l -0.37718,-1.533115 c -0.21614,-0.924292 -0.66205,-1.087075 -1.48516,-1.087075 h -1.07149 v 3.59324 h -1.99581 v -9.71195 h 3.67874 c 2.1936,0 3.44425,0.841464 3.44425,2.901562 0,1.517578 -0.92409,2.324147 -2.15663,2.423456 v 0.05059 c 0.90598,0.131517 1.38417,0.510433 1.63254,1.450333 l 0.49207,1.846745 c 0.11499,0.395468 0.24815,0.726545 0.54246,1.039256 h -2.22561"
           style="fill:#231f20;fill-opacity:1;fill-rule:nonzero;stroke:none;stroke-width:0.23544" />
        <path
           id="path21"
           d="m 228.61912,21.511095 v 5.127273 h -1.33825 l -0.29429,-1.138589 c -0.46429,0.890268 -1.51742,1.33631 -2.67155,1.33631 -2.52462,0 -4.30432,-1.648998 -4.30432,-5.012305 0,-3.249285 1.79807,-5.095136 4.68127,-5.095136 1.91295,0 3.21893,0.858178 3.84426,2.423385 l -1.91295,0.924337 c -0.33102,-1.073372 -1.0576,-1.600286 -2.01396,-1.600286 -1.26925,0 -2.53851,0.924339 -2.53851,3.363332 0,1.897318 0.72658,3.364227 2.52462,3.364227 1.30129,0 2.09238,-0.608824 2.09238,-1.600263 v -0.459837 h -2.15665 v -1.632448 h 4.08795"
           style="fill:#231f20;fill-opacity:1;fill-rule:nonzero;stroke:none;stroke-width:0.23544" />
        <path
           id="path22"
           d="m 48.931436,34.584469 v 6.479191 c 0,2.588918 -1.84858,3.430433 -3.908681,3.430433 -2.07849,0 -3.927061,-0.841515 -3.927061,-3.430433 v -6.479191 h 1.995721 v 5.936574 c 0,1.499093 0.510435,2.308416 1.93134,2.308416 1.397925,0 1.91295,-0.809323 1.91295,-2.308416 v -5.936574 h 1.995731"
           style="fill:#231f20;fill-opacity:1;fill-rule:nonzero;stroke:none;stroke-width:0.23544" />
        <path
           id="path23"
           d="m 57.236206,39.564566 c 0.54262,0.790938 0.905904,1.482544 0.905904,1.482544 h 0.06436 c 0,0 -0.06436,-0.889351 -0.06436,-2.12633 v -4.336311 h 1.995707 v 9.711891 h -1.866945 l -3.577605,-4.929516 c -0.60699,-0.841533 -0.98866,-1.584629 -0.98866,-1.584629 h -0.06436 c 0,0 0.09656,0.873695 0.09656,2.225637 v 4.288508 h -1.99571 v -9.711891 h 1.931339 l 3.563783,4.980097"
           style="fill:#231f20;fill-opacity:1;fill-rule:nonzero;stroke:none;stroke-width:0.23544" />
        <path
           id="path24"
           d="m 65.223723,34.584469 v 9.711891 h -1.995756 v -9.711891 h 1.995756"
           style="fill:#231f20;fill-opacity:1;fill-rule:nonzero;stroke:none;stroke-width:0.23544" />
        <path
           id="path25"
           d="m 71.059103,40.125574 c 0.44616,1.40068 0.57942,2.53834 0.57942,2.53834 h 0.06427 c 0,0 0.133495,-1.154213 0.542688,-2.52179 l 1.715181,-5.557655 h 2.097065 L 72.838793,44.29636 H 70.383152 L 67.18258,34.584469 h 2.147449 l 1.729072,5.541105"
           style="fill:#231f20;fill-opacity:1;fill-rule:nonzero;stroke:none;stroke-width:0.23544" />
        <path
           id="path26"
           d="m 84.344045,44.29636 h -6.332161 v -9.711891 h 6.332161 v 1.731756 h -4.336337 v 2.241295 h 3.825903 v 1.68302 h -3.825903 v 2.324968 h 4.336337 v 1.730852"
           style="fill:#231f20;fill-opacity:1;fill-rule:nonzero;stroke:none;stroke-width:0.23544" />
        <path
           id="path27"
           d="m 88.956315,39.035745 h 1.549666 c 1.006976,0 1.535776,-0.395469 1.535776,-1.384128 0,-0.873696 -0.510435,-1.385964 -1.51741,-1.385964 h -1.568032 z m 3.41647,5.260615 c -0.266519,-0.248314 -0.381649,-0.576643 -0.478178,-0.97303 l -0.38165,-1.533123 c -0.211424,-0.924291 -0.657582,-1.087076 -1.485391,-1.087076 h -1.071251 v 3.593229 h -1.995826 v -9.711891 h 3.678751 c 2.193595,0 3.44896,0.84151 3.44896,2.90161 0,1.517483 -0.924336,2.324052 -2.161338,2.423361 v 0.05059 c 0.905973,0.131516 1.384152,0.510435 1.632304,1.450335 l 0.492072,1.846742 c 0.115136,0.395466 0.24839,0.726553 0.547397,1.039248 h -2.22585"
           style="fill:#231f20;fill-opacity:1;fill-rule:nonzero;stroke:none;stroke-width:0.23544" />
        <path
           id="path28"
           d="m 97.771425,41.344165 c 0.202244,1.02361 0.924343,1.615887 1.899291,1.615887 0.841474,0 1.434534,-0.363274 1.434534,-1.102699 0,-0.69436 -0.38164,-1.039255 -1.747433,-1.501849 -1.995585,-0.643787 -3.053183,-1.418172 -3.053183,-3.117743 0,-2.142883 1.682926,-2.86667 3.31547,-2.86667 1.931316,0 3.366086,0.675052 3.545256,2.537406 l -1.97723,0.462617 c -0.0829,-0.92429 -0.75882,-1.367577 -1.536006,-1.367577 -0.707973,0 -1.269021,0.360506 -1.269021,1.070521 0,0.77528 0.611437,1.071441 1.830067,1.467805 1.84868,0.608848 2.95219,1.268268 2.95219,3.117745 0,2.043554 -1.65067,2.834485 -3.641792,2.834485 -1.912948,0 -3.14995,-0.675969 -3.582218,-2.423384 l 1.830075,-0.726544"
           style="fill:#231f20;fill-opacity:1;fill-rule:nonzero;stroke:none;stroke-width:0.23544" />
        <path
           id="path29"
           d="m 107.63048,34.584469 v 9.711891 h -1.9956 v -9.711891 h 1.9956"
           style="fill:#231f20;fill-opacity:1;fill-rule:nonzero;stroke:none;stroke-width:0.23544" />
        <path
           id="path30"
           d="m 112.29337,44.29636 v -7.980135 h -2.70403 v -1.731756 h 7.43568 v 1.731756 h -2.73606 v 7.980135 h -1.99559"
           style="fill:#231f20;fill-opacity:1;fill-rule:nonzero;stroke:none;stroke-width:0.23544" />
        <path
           id="path31"
           d="m 123.50432,31.28553 c 0.65759,0 1.15413,0.412938 1.15413,1.154221 0,0.709993 -0.49654,1.137647 -1.15413,1.137647 -0.63004,0 -1.14047,-0.427654 -1.14047,-1.137647 0,-0.741283 0.51043,-1.154221 1.14047,-1.154221 z m -3.06707,9.11871 h 2.63951 l -0.51515,-1.451276 C 122.00057,37.371114 121.8028,36.2491 121.8028,36.2491 h -0.0642 c 0,0 -0.24841,1.137646 -0.79086,2.688232 z m -0.41391,-9.135263 c 0.66205,0 1.1725,0.413859 1.1725,1.154222 0,0.726545 -0.51045,1.154199 -1.1725,1.154199 -0.61167,0 -1.13576,-0.427654 -1.13576,-1.154199 0,-0.740363 0.52409,-1.154222 1.13576,-1.154222 z m 3.62812,10.786099 h -3.77528 l -0.75882,2.241284 h -2.09683 l 3.5316,-9.711891 h 2.50603 l 3.52713,9.711891 h -2.14298 l -0.79085,-2.241284"
           style="fill:#231f20;fill-opacity:1;fill-rule:nonzero;stroke:none;stroke-width:0.23544" />
        <path
           id="path32"
           d="m 129.30297,44.29636 v -7.980135 h -2.70379 v -1.731756 h 7.43567 v 1.731756 h -2.73629 v 7.980135 h -1.99559"
           style="fill:#231f20;fill-opacity:1;fill-rule:nonzero;stroke:none;stroke-width:0.23544" />
        <path
           id="path33"
           d="m 140.47154,44.29636 v -9.711891 h 6.13438 v 1.731756 h -4.13854 v 2.538349 h 3.62812 v 1.682101 h -3.62812 v 3.759685 h -1.99584"
           style="fill:#231f20;fill-opacity:1;fill-rule:nonzero;stroke:none;stroke-width:0.23544" />
        <path
           id="path34"
           d="m 150.9239,39.035745 h 1.54967 c 1.00698,0 1.53129,-0.395469 1.53129,-1.384128 0,-0.873696 -0.51041,-1.385964 -1.5174,-1.385964 h -1.56356 z m 3.41201,5.260615 c -0.26206,-0.248314 -0.37696,-0.576643 -0.47819,-0.97303 l -0.37717,-1.533123 c -0.21614,-0.924291 -0.66205,-1.087076 -1.48517,-1.087076 h -1.07148 v 3.593229 h -1.99581 v -9.711891 h 3.67874 c 2.1936,0 3.44424,0.84151 3.44424,2.90161 0,1.517483 -0.92432,2.324052 -2.16109,2.423361 v 0.05059 c 0.91045,0.131516 1.38391,0.510435 1.63231,1.450335 l 0.49677,1.846742 c 0.11499,0.395466 0.24815,0.726553 0.54246,1.039248 h -2.22561"
           style="fill:#231f20;fill-opacity:1;fill-rule:nonzero;stroke:none;stroke-width:0.23544" />
        <path
           id="path35"
           d="m 165.14684,44.29636 h -6.33193 v -9.711891 h 6.33193 v 1.731756 h -4.33633 v 2.241295 h 3.82589 v 1.68302 h -3.82589 v 2.324968 h 4.33633 v 1.730852"
           style="fill:#231f20;fill-opacity:1;fill-rule:nonzero;stroke:none;stroke-width:0.23544" />
        <path
           id="path36"
           d="m 169.75911,34.584469 v 9.711891 h -1.99583 v -9.711891 h 1.99583"
           style="fill:#231f20;fill-opacity:1;fill-rule:nonzero;stroke:none;stroke-width:0.23544" />
        <path
           id="path37"
           d="m 174.85428,42.613333 h 1.64619 c 0.92433,0 1.47151,-0.344884 1.47151,-1.253535 0,-0.739424 -0.46453,-1.169855 -1.4854,-1.169855 h -1.6323 z m 1.36554,-3.905909 c 0.8417,0 1.38886,-0.34765 1.38886,-1.221345 0,-0.873719 -0.54716,-1.220426 -1.45313,-1.220426 h -1.30127 v 2.441771 z m 1.63254,0.641009 c 1.33825,0.14898 2.14746,1.007071 2.14746,2.276235 0,1.616811 -1.07149,2.671692 -3.44873,2.671692 h -3.69265 v -9.711891 h 3.72467 c 1.96356,0 3.02118,0.873693 3.02118,2.455545 0,1.236978 -0.71269,2.012284 -1.75193,2.24405 v 0.06436"
           style="fill:#231f20;fill-opacity:1;fill-rule:nonzero;stroke:none;stroke-width:0.23544" />
        <path
           id="path38"
           d="m 190.08418,34.584469 v 6.479191 c 0,2.588918 -1.84867,3.430433 -3.90878,3.430433 -2.07847,0 -3.92242,-0.841515 -3.92242,-3.430433 v -6.479191 h 1.99582 v 5.936574 c 0,1.499093 0.51043,2.308416 1.9266,2.308416 1.40275,0 1.91295,-0.809323 1.91295,-2.308416 v -5.936574 h 1.99583"
           style="fill:#231f20;fill-opacity:1;fill-rule:nonzero;stroke:none;stroke-width:0.23544" />
        <path
           id="path39"
           d="m 194.87585,39.035745 h 1.54967 c 1.00697,0 1.53577,-0.395469 1.53577,-1.384128 0,-0.873696 -0.51043,-1.385964 -1.51741,-1.385964 h -1.56803 z m 3.41648,5.260615 c -0.26653,-0.248314 -0.38167,-0.576643 -0.47818,-0.97303 l -0.38166,-1.533123 c -0.21142,-0.924291 -0.65758,-1.087076 -1.4854,-1.087076 h -1.07124 v 3.593229 h -1.99583 v -9.711891 h 3.67875 c 2.19338,0 3.44873,0.84151 3.44873,2.90161 0,1.517483 -0.92409,2.324052 -2.16111,2.423361 v 0.05059 c 0.90576,0.131516 1.38416,0.510435 1.63231,1.450335 l 0.49207,1.846742 c 0.11511,0.395466 0.2484,0.726553 0.54717,1.039248 h -2.22561"
           style="fill:#231f20;fill-opacity:1;fill-rule:nonzero;stroke:none;stroke-width:0.23544" />
        <path
           id="path40"
           d="m 210.6023,39.169098 v 5.127262 h -1.33353 l -0.29878,-1.138574 c -0.4598,0.89026 -1.5174,1.336307 -2.67177,1.336307 -2.51991,0 -4.30406,-1.649002 -4.30406,-5.012307 0,-3.249237 1.79804,-5.095063 4.68572,-5.095063 1.91294,0 3.21446,0.85806 3.83978,2.423383 l -1.91294,0.924292 c -0.33104,-1.073277 -1.05313,-1.600263 -2.00949,-1.600263 -1.26925,0 -2.54299,0.924291 -2.54299,3.363285 0,1.897318 0.72658,3.364227 2.52464,3.364227 1.30127,0 2.09681,-0.608833 2.09681,-1.600264 v -0.459838 h -2.16134 v -1.632447 h 4.08795"
           style="fill:#231f20;fill-opacity:1;fill-rule:nonzero;stroke:none;stroke-width:0.23544" />
      </g>
      <path
         id="path41"
         d="m 0,477.926 v 56.699 h 34.9414 v -53.398 c 0,-7.383 1.6992,-14.758 11.25,-14.758 9.5703,0 11.25,7.375 11.25,14.758 v 53.398 H 92.3828 V 477.926 C 92.3828,449.332 72.6172,440.25 46.1914,440.25 19.7852,440.25 0,449.332 0,477.926"
         style="fill:#231f20;fill-opacity:1;fill-rule:nonzero;stroke:none"
         transform="matrix(0.13333333,0,0,-0.13333333,0,71.28)" />
      <path
         id="path42"
         d="m 172.695,507.457 c 6.641,-8.789 10.567,-15.078 10.567,-15.078 h 0.683 c 0,0 -0.351,7.539 -0.351,16.336 v 25.91 h 34.961 v -92.512 h -29.004 l -21.465,27.168 c -6.484,8.332 -10.898,14.922 -10.898,14.922 h -0.704 c 0,0 0.352,-7.215 0.352,-18.992 v -23.098 h -34.941 v 92.512 h 30.683 l 20.117,-27.168"
         style="fill:#231f20;fill-opacity:1;fill-rule:nonzero;stroke:none"
         transform="matrix(0.13333333,0,0,-0.13333333,0,71.28)" />
      <path
         id="path43"
         d="M 284.961,442.113 H 250 v 92.512 h 34.961 v -92.512"
         style="fill:#231f20;fill-opacity:1;fill-rule:nonzero;stroke:none"
         transform="matrix(0.13333333,0,0,-0.13333333,0,71.28)" />
      <path
         id="path44"
         d="m 2.59766,318.129 v 92.512 H 91.0547 V 383.004 H 37.5391 V 370.426 H 82.6367 V 344.203 H 37.5391 V 318.129 H 2.59766"
         style="fill:#231f20;fill-opacity:1;fill-rule:nonzero;stroke:none"
         transform="matrix(0.13333333,0,0,-0.13333333,0,71.28)" />
      <path
         id="path45"
         d="M 0.0976563,194.473 H 92.2852 v 92.172 H 0.0976563 v -92.172"
         style="fill:#231f20;fill-opacity:1;fill-rule:nonzero;stroke:none"
         transform="matrix(0.13333333,0,0,-0.13333333,0,71.28)" />
      <path
         id="path46"
         d="m 156.152,368.383 h 9.102 c 5.781,0 9.648,2.512 9.648,8.722 0,5.333 -3.476,8.36 -9.277,8.36 h -9.473 z m 22.325,-50.254 c -3.243,3.137 -4.258,5.969 -5.625,11.457 l -1.7,7.227 c -1.191,5.496 -3.75,7.226 -8.691,7.226 h -6.309 v -25.91 h -34.257 v 92.519 h 48.574 c 23.027,0 40.234,-7.714 40.234,-29.851 0,-15.391 -8.203,-22.16 -20.293,-24.024 v -0.636 c 8.867,-1.258 13.301,-5.34 15.86,-13.672 L 210,330.23 c 1.719,-5.351 3.086,-8.652 6.836,-12.101 h -38.359"
         style="fill:#231f20;fill-opacity:1;fill-rule:nonzero;stroke:none"
         transform="matrix(0.13333333,0,0,-0.13333333,0,71.28)" />
    </g>
  </g>
</svg>
